<?xml version="1.0" encoding="UTF-8"?>
<!DOCTYPE svg PUBLIC "-//W3C//DTD SVG 1.1//EN" "http://www.w3.org/Graphics/SVG/1.1/DTD/svg11.dtd">
<svg xmlns="http://www.w3.org/2000/svg" version="1.1" width="835px" height="533px" style="shape-rendering:geometricPrecision; text-rendering:geometricPrecision; image-rendering:optimizeQuality; fill-rule:evenodd; clip-rule:evenodd" xmlns:xlink="http://www.w3.org/1999/xlink">
<g><path style="opacity:0.004" fill="#12eb0a" d="M 157.5,359.5 C 328.825,360.653 500.158,360.82 671.5,360C 672.499,245.57 672.832,131.07 672.5,16.5C 500.833,16.5 329.167,16.5 157.5,16.5C 157.5,14.8333 157.5,13.1667 157.5,11.5C 330.5,11.3333 503.5,11.5 676.5,12C 677.166,70.0967 677.499,128.263 677.5,186.5C 677.499,244.737 677.166,302.903 676.5,361C 503.833,361.667 331.167,361.667 158.5,361C 157.944,360.617 157.611,360.117 157.5,359.5 Z"/></g>
<g><path style="opacity:0.987" fill="#00fd7e" d="M 157.5,16.5 C 329.167,16.5 500.833,16.5 672.5,16.5C 672.832,131.07 672.499,245.57 671.5,360C 500.158,360.82 328.825,360.653 157.5,359.5C 157.5,245.167 157.5,130.833 157.5,16.5 Z M 203.5,56.5 C 346.167,56.5 488.833,56.5 631.5,56.5C 631.5,142.833 631.5,229.167 631.5,315.5C 489.167,315.5 346.833,315.5 204.5,315.5C 203.501,229.335 203.167,143.002 203.5,56.5 Z"/></g>
<g><path style="opacity:0.475" fill="#196536" d="M 631.5,56.5 C 632.833,143.167 632.833,229.833 631.5,316.5C 488.999,316.833 346.666,316.5 204.5,315.5C 346.833,315.5 489.167,315.5 631.5,315.5C 631.5,229.167 631.5,142.833 631.5,56.5 Z"/></g>
<g><path style="opacity:0.859" fill="#00d56a" d="M 203.5,56.5 C 203.167,143.002 203.501,229.335 204.5,315.5C 346.666,316.5 488.999,316.833 631.5,316.5C 489.001,317.666 346.334,317.833 203.5,317C 202.167,230.069 202.167,143.236 203.5,56.5 Z"/></g>
<g><path style="opacity:0.004" fill="#1dd013" d="M 672.5,390.5 C 503.195,389.504 333.861,389.171 164.5,389.5C 165.614,388.115 166.614,386.615 167.5,385C 334.5,384.5 501.5,384.333 668.5,384.5C 668.657,387.318 669.991,389.318 672.5,390.5 Z"/></g>
<g><path style="opacity:0.988" fill="#00fd7e" d="M 164.5,389.5 C 333.861,389.171 503.195,389.504 672.5,390.5C 672.833,390.5 673.167,390.5 673.5,390.5C 697.294,431.408 721.128,472.408 745,513.5C 746.118,515.765 746.951,518.099 747.5,520.5C 525.999,520.833 304.666,520.5 83.5,519.5C 109.473,476.517 135.473,433.517 161.5,390.5C 162.391,389.89 163.391,389.557 164.5,389.5 Z M 369.5,454.5 C 401.5,454.5 433.5,454.5 465.5,454.5C 466.649,454.791 467.316,455.624 467.5,457C 468.114,458.537 468.114,459.87 467.5,461C 469.933,466.006 471.933,471.172 473.5,476.5C 473.285,478.179 473.952,479.179 475.5,479.5C 475.5,480.167 475.5,480.833 475.5,481.5C 476.138,483.46 476.138,485.293 475.5,487C 476.044,487.717 476.711,488.217 477.5,488.5C 477.833,488.5 478.167,488.5 478.5,488.5C 438.335,489.665 398.002,489.831 357.5,489C 358.252,488.329 358.586,487.496 358.5,486.5C 361.544,481.341 363.21,475.675 363.5,469.5C 365.357,467.718 366.357,465.385 366.5,462.5C 367.412,459.724 368.412,457.057 369.5,454.5 Z"/></g>
<g><path style="opacity:0.004" fill="#0ef10a" d="M 161.5,390.5 C 135.473,433.517 109.473,476.517 83.5,519.5C 83.1667,519.5 82.8333,519.5 82.5,519.5C 83.5492,516.53 84.7159,513.53 86,510.5C 108.788,470.939 131.621,431.272 154.5,391.5C 156.743,390.526 159.076,390.192 161.5,390.5 Z"/></g>
<g><path style="opacity:0.004" fill="#0df209" d="M 673.5,390.5 C 676.119,390.232 678.619,390.565 681,391.5C 705.587,433.826 730.087,476.326 754.5,519C 752.75,520.319 750.75,520.819 748.5,520.5C 748.167,520.5 747.833,520.5 747.5,520.5C 746.951,518.099 746.118,515.765 745,513.5C 721.128,472.408 697.294,431.408 673.5,390.5 Z"/></g>
<g><path style="opacity:0.584" fill="#19753c" d="M 465.5,454.5 C 433.5,454.5 401.5,454.5 369.5,454.5C 385.152,453.167 401.152,452.501 417.5,452.5C 433.848,452.501 449.848,453.167 465.5,454.5 Z"/></g>
<g><path style="opacity:0.733" fill="#168042" d="M 366.5,462.5 C 366.357,465.385 365.357,467.718 363.5,469.5C 363.464,466.539 364.464,464.206 366.5,462.5 Z"/></g>
<g><path style="opacity:0.099" fill="#000703" d="M 473.5,476.5 C 474.401,477.29 475.068,478.29 475.5,479.5C 473.952,479.179 473.285,478.179 473.5,476.5 Z"/></g>
<g><path style="opacity:0.043" fill="#0f582d" d="M 475.5,481.5 C 477.344,483.279 478.01,485.612 477.5,488.5C 476.711,488.217 476.044,487.717 475.5,487C 476.138,485.293 476.138,483.46 475.5,481.5 Z"/></g>
<g><path style="opacity:0.514" fill="#18723b" d="M 358.5,486.5 C 358.586,487.496 358.252,488.329 357.5,489C 398.002,489.831 438.335,489.665 478.5,488.5C 479.404,489.209 479.737,490.209 479.5,491.5C 438.5,491.5 397.5,491.5 356.5,491.5C 356.077,489.219 356.744,487.552 358.5,486.5 Z"/></g>
<g><path style="opacity:0.133" fill="#000000" d="M 82.5,519.5 C 82.8333,519.5 83.1667,519.5 83.5,519.5C 304.666,520.5 525.999,520.833 747.5,520.5C 747.833,520.5 748.167,520.5 748.5,520.5C 637.667,521.167 526.667,521.5 415.5,521.5C 304.165,521.5 193.165,520.833 82.5,519.5 Z"/></g>
</svg>
